<?xml version="1.0" encoding="utf-8"?>
<!-- Generator: Adobe Illustrator 24.1.2, SVG Export Plug-In . SVG Version: 6.00 Build 0)  -->
<svg version="1.1" id="Capa_1" xmlns="http://www.w3.org/2000/svg" xmlns:xlink="http://www.w3.org/1999/xlink" x="0px" y="0px"
	 viewBox="0 0 1080 1080" style="enable-background:new 0 0 1080 1080;" xml:space="preserve">
<style type="text/css">
	.st0{display:none;}
	.st1{display:inline;fill:#94FFAD;}
	.st2{display:inline;fill:#2AFA61;stroke:#42DE7B;stroke-width:25;stroke-miterlimit:10;}
	.st3{fill:#2AFA61;}
	.st4{fill:#42DE7B;}
</style>
<g id="Guias">
</g>
<g id="Capa_4" class="st0">
	<circle class="st1" cx="540" cy="540" r="540"/>
</g>
<g id="Play_1_" class="st0">
	<path class="st2" d="M919.5,505.4l-576-332.6c-26.7-15.4-60,3.8-60,34.6v665.1c0,30.8,33.3,50,60,34.6l576-332.6
		C946.1,559.3,946.1,520.8,919.5,505.4z"/>
</g>
<g id="Play_expanded">
	<g>
		<path class="st3" d="M905,496.6L359,181.4c-33.3-19.2-75,4.8-75,43.3v630.5c0,38.5,41.7,62.5,75,43.3l546-315.2
			C938.3,564,938.3,515.9,905,496.6z"/>
		<path class="st4" d="M334,920.3c-11.2,0-22.3-2.9-32.5-8.8c-20.4-11.7-32.5-32.8-32.5-56.3V224.7c0-23.5,12.1-44.5,32.5-56.3
			c20.3-11.7,44.6-11.7,65,0l546,315.2c20.4,11.7,32.5,32.8,32.5,56.3s-12.1,44.5-32.5,56.3l-546,315.2
			C356.3,917.3,345.2,920.3,334,920.3z M334,189.7c-6,0-12,1.6-17.5,4.7c-11,6.3-17.5,17.7-17.5,30.3v630.5c0,12.7,6.5,24,17.5,30.3
			s24,6.3,35,0l546-315.2c11-6.3,17.5-17.7,17.5-30.3c0-12.7-6.5-24-17.5-30.3l-546-315.2C346,191.2,340,189.7,334,189.7z"/>
	</g>
</g>
</svg>
