<?xml version="1.0" encoding="utf-8"?>
<!-- Generator: Adobe Illustrator 24.1.2, SVG Export Plug-In . SVG Version: 6.00 Build 0)  -->
<svg version="1.1" xmlns="http://www.w3.org/2000/svg" xmlns:xlink="http://www.w3.org/1999/xlink" x="0px" y="0px"
	 viewBox="0 0 1080 1080" style="enable-background:new 0 0 1080 1080;" xml:space="preserve">
<style type="text/css">
	.st0{display:none;}
	.st1{display:inline;fill:#94FFAD;}
	.st2{fill:#2AFA61;stroke:#42DE7B;stroke-width:25;stroke-miterlimit:10;}
	.st3{display:inline;}
	.st4{fill:#2AFA61;}
	.st5{fill:#42DE7B;}
	.st6{fill:#EF7375;stroke:#FA1618;stroke-width:30;stroke-miterlimit:10;}
</style>
<g id="Guias">
</g>
<g id="Capa_4" class="st0">
	<circle class="st1" cx="-1162" cy="540" r="540"/>
</g>
<g id="Capa_2">
	<path class="st2" d="M-782.5,505.4l-576-332.6c-26.7-15.4-60,3.8-60,34.6v665.1c0,30.8,33.3,50,60,34.6l576-332.6
		C-755.9,559.3-755.9,520.8-782.5,505.4z"/>
</g>
<g id="Play" class="st0">
	<g class="st3">
		<path class="st4" d="M905,496.6L359,181.4c-33.3-19.2-75,4.8-75,43.3v630.5c0,38.5,41.7,62.5,75,43.3l546-315.2
			C938.3,564,938.3,515.9,905,496.6z"/>
		<path class="st5" d="M334,920.3c-11.2,0-22.3-2.9-32.5-8.8c-20.4-11.7-32.5-32.8-32.5-56.3V224.7c0-23.5,12.1-44.5,32.5-56.3
			c20.3-11.7,44.6-11.7,65,0l546,315.2c20.4,11.7,32.5,32.8,32.5,56.3c0,23.5-12.1,44.5-32.5,56.3l-546,315.2
			C356.3,917.3,345.2,920.3,334,920.3z M334,189.7c-6,0-12,1.6-17.5,4.7c-11,6.3-17.5,17.7-17.5,30.3v630.5c0,12.7,6.5,24,17.5,30.3
			c11,6.3,24,6.3,35,0l546-315.2c11-6.3,17.5-17.7,17.5-30.3c0-12.7-6.5-24-17.5-30.3l-546-315.2C346,191.2,340,189.7,334,189.7z"/>
	</g>
	<g class="st3">
		<path class="st4" d="M-797,496.6l-546-315.2c-33.3-19.2-75,4.8-75,43.3v630.5c0,38.5,41.7,62.5,75,43.3l546-315.2
			C-763.7,564-763.7,515.9-797,496.6z"/>
		<path class="st5" d="M-1368,920.3c-11.2,0-22.3-2.9-32.5-8.8c-20.4-11.7-32.5-32.8-32.5-56.3V224.7c0-23.5,12.1-44.5,32.5-56.3
			c20.3-11.7,44.6-11.7,65,0l546,315.2c20.4,11.7,32.5,32.8,32.5,56.3c0,23.5-12.1,44.5-32.5,56.3l-546,315.2
			C-1345.7,917.3-1356.8,920.3-1368,920.3z M-1368,189.7c-6,0-12,1.6-17.5,4.7c-11,6.3-17.5,17.7-17.5,30.3v630.5
			c0,12.7,6.5,24,17.5,30.3c11,6.3,24,6.3,35,0l546-315.2c11-6.3,17.5-17.7,17.5-30.3c0-12.7-6.5-24-17.5-30.3l-546-315.2
			C-1356,191.2-1362,189.7-1368,189.7z"/>
	</g>
</g>
<g id="Stop">
	<path class="st6" d="M840,890H240c-27.6,0-50-22.4-50-50V240c0-27.6,22.4-50,50-50h600c27.6,0,50,22.4,50,50v600
		C890,867.6,867.6,890,840,890z"/>
</g>
</svg>
