<?xml version="1.0" encoding="utf-8"?>
<!-- Generator: Adobe Illustrator 24.1.2, SVG Export Plug-In . SVG Version: 6.00 Build 0)  -->
<svg version="1.1" id="Capa_1" xmlns="http://www.w3.org/2000/svg" xmlns:xlink="http://www.w3.org/1999/xlink" x="0px" y="0px"
	 viewBox="0 0 1080 1080" style="enable-background:new 0 0 1080 1080;" xml:space="preserve">
<style type="text/css">
	.st0{display:none;}
	.st1{display:inline;fill:#EF7375;}
	.st2{fill:#EF7375;}
	.st3{fill:#FA1618;}
	.st4{display:inline;fill:#EF7375;stroke:#FA1618;stroke-width:30;stroke-miterlimit:10;}
</style>
<g id="Capa_4" class="st0">
	<circle class="st1" cx="540" cy="540" r="540"/>
</g>
<g id="Stop_expanded">
	<g>
		<path class="st2" d="M840,890H240c-27.6,0-50-22.4-50-50V240c0-27.6,22.4-50,50-50h600c27.6,0,50,22.4,50,50v600
			C890,867.6,867.6,890,840,890z"/>
		<path class="st3" d="M840,905H240c-35.8,0-65-29.2-65-65V240c0-35.8,29.2-65,65-65h600c35.8,0,65,29.2,65,65v600
			C905,875.8,875.8,905,840,905z M240,205c-19.3,0-35,15.7-35,35v600c0,19.3,15.7,35,35,35h600c19.3,0,35-15.7,35-35V240
			c0-19.3-15.7-35-35-35H240z"/>
	</g>
</g>
<g id="Stop_1_" class="st0">
	<path class="st4" d="M840,890H240c-27.6,0-50-22.4-50-50v-600c0-27.6,22.4-50,50-50h600c27.6,0,50,22.4,50,50v600
		C890,867.5,867.6,890,840,890z"/>
</g>
</svg>
